<?xml version="1.0" encoding="iso-8859-1"?>
<!-- Generator: Adobe Illustrator 19.0.0, SVG Export Plug-In . SVG Version: 6.00 Build 0)  -->
<svg version="1.1" id="Capa_1" xmlns="http://www.w3.org/2000/svg" xmlns:xlink="http://www.w3.org/1999/xlink" x="0px" y="0px"
	 viewBox="0 0 512.001 512.001" style="enable-background:new 0 0 512.001 512.001;" xml:space="preserve">
<g>
	<g>
		<path d="M480.603,288.428c-0.262-4.132-2.22-7.971-5.41-10.61s-7.329-3.84-11.436-3.324c-0.535,0.067-1.069,0.146-1.604,0.215
			c2.181-50.283-14.71-94.715-15.523-96.818c-2.544-6.581-9.332-10.498-16.303-9.412c-0.345,0.054-1.349,0.216-2.9,0.503
			c-13.502-54.727-52.651-100.081-54.465-102.16c-4.006-4.591-10.392-6.301-16.156-4.329c-0.882,0.302-8.32,2.886-19.292,7.843
			c-28.004-39.651-71.655-66.876-73.637-68.1c-4.83-2.981-10.928-2.981-15.758,0c-1.982,1.223-45.627,28.445-73.631,68.091
			c-10.957-4.949-18.384-7.53-19.265-7.831c-5.764-1.97-12.149-0.261-16.156,4.329c-1.814,2.079-40.965,47.434-54.466,102.163
			c-1.568-0.291-2.584-0.455-2.931-0.509c-6.974-1.087-13.759,2.831-16.303,9.412c-0.813,2.102-17.704,46.534-15.523,96.817
			c-0.535-0.069-1.069-0.148-1.604-0.215c-4.104-0.518-8.244,0.686-11.433,3.325c-3.19,2.639-5.148,6.478-5.41,10.61
			C23.726,409.677,126.854,512.001,256,512.001C385,512.001,488.283,409.825,480.603,288.428z M431.786,279.727
			c-29.88,6.003-59.011,15.05-86.936,26.951c-8.473-14.401-19.396-27.37-30.474-38.426c26.192-42.968,83.021-61.273,108.178-67.474
			C427.302,217.14,434.366,247.96,431.786,279.727z M255.999,258.905c14.039,9.608,43.95,32.159,61.522,60.525
			C296.086,330.333,275.5,342.976,256,357.283c-19.501-14.307-40.087-26.95-61.522-37.853
			C212.052,291.061,241.968,268.509,255.999,258.905z M196.056,220.493c17.593-30.71,45.961-55.021,59.956-65.875
			c13.992,10.827,42.305,35.064,59.934,65.873c-8.996,7.972-17.278,17.095-24.254,27.52c-15.052-12.075-26.889-19.225-28.004-19.89
			c-4.735-2.827-10.642-2.827-15.377,0c-1.115,0.666-12.952,7.815-28.004,19.891C213.332,237.588,205.051,228.465,196.056,220.493z
			 M356.856,94.672c10.979,14.429,32.839,46.349,41.484,81.65c-16.734,5.213-37.888,13.49-58.167,26.17
			c-16.249-27.129-38.748-49.077-55.027-62.89C309.688,116.307,341.227,101.241,356.856,94.672z M256.01,33.061
			c12.374,8.694,36.751,27.419,54.478,51.107c-16.282,9.37-34.379,21.841-49.953,37.541c-2.942-0.933-6.104-0.936-9.048-0.008
			C235.908,106,217.808,93.529,201.524,84.159C219.222,60.543,243.635,41.774,256.01,33.061z M155.201,94.669
			c15.618,6.543,47.088,21.555,71.675,44.916c-16.281,13.812-38.793,35.767-55.048,62.908
			c-20.265-12.671-41.403-20.945-58.131-26.159C122.339,141.128,144.228,109.124,155.201,94.669z M89.445,200.778
			c25.168,6.204,81.989,24.509,108.178,67.474c-11.077,11.056-22,24.024-30.473,38.425c-27.925-11.902-57.056-20.949-86.937-26.951
			C77.634,247.955,84.7,217.133,89.445,200.778z M61.095,306.693c60.742,10.166,118.535,33.763,169.037,68.976
			c-21.16,15.874-55.206,45.646-70.806,82.469C102.298,427.79,63.264,371.479,61.095,306.693z M256,482.001
			c-24.367,0-47.7-4.178-69.223-11.79c14.58-35.192,52.7-64.658,69.222-76.193c16.53,11.541,54.644,41.005,69.223,76.193
			C303.7,477.823,280.367,482.001,256,482.001z M352.674,458.138c-15.6-36.822-49.645-66.593-70.805-82.468
			c50.5-35.214,108.292-58.81,169.036-68.977C448.735,371.479,409.702,427.79,352.674,458.138z"/>
	</g>
</g>
<g>
</g>
<g>
</g>
<g>
</g>
<g>
</g>
<g>
</g>
<g>
</g>
<g>
</g>
<g>
</g>
<g>
</g>
<g>
</g>
<g>
</g>
<g>
</g>
<g>
</g>
<g>
</g>
<g>
</g>
</svg>
